# xmcd CD database file
#
# Track frame offsets:
#	150
#	14187
#	26703
#
# Disc length: 514 seconds
#
# Revision: 0
# Processed by: cddbd v1.5.2PL0 Copyright (c) Steve Scherf et al.
# Submitted via: CDex 1.86
#
DISCID=22020003
DTITLE=SEB - Swing au bureau
DYEAR=2017
DGENRE=Jazz
TTITLE0=Coquette
TTITLE1=Djangology
TTITLE2=Belleville
EXTD=YEAR: 2017
EXTT0=
EXTT1=
EXTT2=
PLAYORDER=
